<svg width="41" height="41" viewBox="0 0 41 41" fill="none" xmlns="http://www.w3.org/2000/svg">
<rect x="0.832031" y="0.0620117" width="40" height="40" rx="5" fill="#F5AF05"/>
<path d="M15.832 30.062C15.282 30.062 14.811 29.866 14.419 29.474C14.027 29.082 13.8314 28.6113 13.832 28.062C13.832 27.512 14.028 27.041 14.42 26.649C14.812 26.257 15.2827 26.0613 15.832 26.062C16.382 26.062 16.853 26.258 17.245 26.65C17.637 27.042 17.8327 27.5127 17.832 28.062C17.832 28.612 17.636 29.083 17.244 29.475C16.852 29.867 16.3814 30.0627 15.832 30.062ZM25.832 30.062C25.282 30.062 24.811 29.866 24.419 29.474C24.027 29.082 23.8314 28.6113 23.832 28.062C23.832 27.512 24.028 27.041 24.42 26.649C24.812 26.257 25.2827 26.0613 25.832 26.062C26.382 26.062 26.853 26.258 27.245 26.65C27.637 27.042 27.8327 27.5127 27.832 28.062C27.832 28.612 27.636 29.083 27.244 29.475C26.852 29.867 26.3814 30.0627 25.832 30.062ZM14.982 14.062L17.382 19.062H24.382L27.132 14.062H14.982ZM14.032 12.062H28.782C29.1654 12.062 29.457 12.233 29.657 12.575C29.857 12.917 29.8654 13.2627 29.682 13.612L26.132 20.012C25.9487 20.3453 25.7027 20.6037 25.394 20.787C25.0854 20.9703 24.748 21.062 24.382 21.062H16.932L15.832 23.062H26.832C27.3843 23.062 27.832 23.5097 27.832 24.062V24.062C27.832 24.6143 27.3843 25.062 26.832 25.062H15.832C15.082 25.062 14.5154 24.7327 14.132 24.074C13.7487 23.4153 13.732 22.7613 14.082 22.112L15.432 19.662L11.832 12.062H10.832C10.2797 12.062 9.83203 11.6143 9.83203 11.062V11.062C9.83203 10.5097 10.2797 10.062 10.832 10.062H12.4361C12.8306 10.062 13.1899 10.2891 13.3592 10.6455L14.032 12.062Z" fill="white"/>
</svg>
