<svg width="16" height="13" viewBox="0 0 16 13" fill="none" xmlns="http://www.w3.org/2000/svg">
<path d="M15.6969 4.3624C15.8187 4.26553 16 4.35615 16 4.50928V10.8999C16 11.728 15.3281 12.3999 14.5 12.3999H1.5C0.671875 12.3999 0 11.728 0 10.8999V4.5124C0 4.35615 0.178125 4.26865 0.303125 4.36553C1.00312 4.90928 1.93125 5.5999 5.11875 7.91553C5.77813 8.39678 6.89062 9.40928 8 9.40303C9.11563 9.4124 10.25 8.37803 10.8844 7.91553C14.0719 5.5999 14.9969 4.90615 15.6969 4.3624ZM8 8.3999C8.725 8.4124 9.76875 7.4874 10.2937 7.10615C14.4406 4.09678 14.7562 3.83428 15.7125 3.08428C15.8937 2.94365 16 2.7249 16 2.49365V1.8999C16 1.07178 15.3281 0.399902 14.5 0.399902H1.5C0.671875 0.399902 0 1.07178 0 1.8999V2.49365C0 2.7249 0.10625 2.94053 0.2875 3.08428C1.24375 3.83115 1.55938 4.09678 5.70625 7.10615C6.23125 7.4874 7.275 8.4124 8 8.3999Z" fill="black"/>
</svg>
