<svg width="17" height="14" viewBox="0 0 17 14" fill="none" xmlns="http://www.w3.org/2000/svg">
<path d="M15.0545 4.14091C15.0647 4.28303 15.0647 4.42519 15.0647 4.56731C15.0647 8.90231 11.7652 13.8973 5.73475 13.8973C3.87687 13.8973 2.151 13.3592 0.699219 12.4252C0.963187 12.4556 1.21697 12.4658 1.49109 12.4658C3.02406 12.4658 4.43525 11.948 5.56216 11.0648C4.12053 11.0343 2.91241 10.0902 2.49616 8.79066C2.69922 8.82109 2.90225 8.84141 3.11547 8.84141C3.40987 8.84141 3.70431 8.80078 3.97841 8.72975C2.47587 8.42516 1.34894 7.10538 1.34894 5.51147V5.47087C1.78547 5.71453 2.29313 5.86681 2.83116 5.88709C1.94791 5.29825 1.36925 4.29319 1.36925 3.15613C1.36925 2.547 1.53166 1.98863 1.81594 1.50131C3.43016 3.49116 5.85656 4.79063 8.57734 4.93278C8.52659 4.68913 8.49613 4.43534 8.49613 4.18153C8.49613 2.37441 9.95806 0.902344 11.7753 0.902344C12.7195 0.902344 13.5723 1.29828 14.1713 1.93788C14.9123 1.79575 15.623 1.52163 16.2525 1.146C16.0088 1.90744 15.491 2.54703 14.8108 2.95309C15.4707 2.88206 16.1103 2.69928 16.6992 2.4455C16.2525 3.09522 15.6941 3.67388 15.0545 4.14091Z" fill="black"/>
</svg>
