<svg width="16" height="17" viewBox="0 0 16 17" fill="none" xmlns="http://www.w3.org/2000/svg">
<path d="M11.8281 0.399902H4.1875C3.60417 0.399902 3.0625 0.509277 2.5625 0.728027C2.05208 0.946777 1.60677 1.24626 1.22656 1.62646C0.846354 2.00667 0.546875 2.44678 0.328125 2.94678C0.109375 3.45719 0 3.99886 0 4.57178V12.2124C0 12.7957 0.109375 13.3374 0.328125 13.8374C0.546875 14.3478 0.846354 14.7931 1.22656 15.1733C1.60677 15.5535 2.05208 15.853 2.5625 16.0718C3.0625 16.2905 3.60417 16.3999 4.1875 16.3999H11.8281C12.401 16.3999 12.9427 16.2905 13.4531 16.0718C13.9531 15.853 14.3932 15.5535 14.7734 15.1733C15.1536 14.7931 15.4531 14.3478 15.6719 13.8374C15.8906 13.3374 16 12.7957 16 12.2124V4.57178C16 3.99886 15.8906 3.45719 15.6719 2.94678C15.4531 2.44678 15.1536 2.00667 14.7734 1.62646C14.3932 1.24626 13.9531 0.946777 13.4531 0.728027C12.9427 0.509277 12.401 0.399902 11.8281 0.399902ZM9.3125 13.1968C9.3125 13.3218 9.26823 13.4312 9.17969 13.5249C9.09115 13.6187 8.98438 13.6655 8.85938 13.6655H7.125C7 13.6655 6.89323 13.6187 6.80469 13.5249C6.71615 13.4312 6.67188 13.3218 6.67188 13.1968V11.4624C6.67188 11.3374 6.71615 11.2306 6.80469 11.1421C6.89323 11.0535 7 11.0093 7.125 11.0093H8.85938C8.98438 11.0093 9.09115 11.0535 9.17969 11.1421C9.26823 11.2306 9.3125 11.3374 9.3125 11.4624V13.1968ZM9.35938 9.2124C9.34896 9.3374 9.29427 9.44417 9.19531 9.53271C9.09635 9.62126 8.97917 9.67074 8.84375 9.68115H7.15625C7.15625 9.68115 7.15365 9.68115 7.14844 9.68115C7.14323 9.68115 7.14062 9.68115 7.14062 9.68115C7.00521 9.68115 6.88802 9.63428 6.78906 9.54053C6.6901 9.44678 6.63542 9.3374 6.625 9.2124L5.98438 3.72803C5.98438 3.71761 5.98438 3.70719 5.98438 3.69678C5.98438 3.68636 5.98438 3.67594 5.98438 3.66553C5.98438 3.51969 6.03646 3.39469 6.14062 3.29053C6.24479 3.18636 6.36979 3.13428 6.51562 3.13428H9.51562C9.66146 3.13428 9.78646 3.18636 9.89062 3.29053C9.99479 3.39469 10.0469 3.51969 10.0469 3.66553C10.0469 3.67594 10.0469 3.68636 10.0469 3.69678C10.0469 3.70719 10.0417 3.71761 10.0312 3.72803H10.0469L9.35938 9.2124Z" fill="#FE4026"/>
</svg>
